<svg width="32" height="48" viewBox="0 0 32 48" fill="none" xmlns="http://www.w3.org/2000/svg">
<path fill-rule="evenodd" clip-rule="evenodd" d="M13.9513 1.53762C13.2501 2.83819 13.3334 6.1372 14.2397 6.36965C14.6012 6.46234 15.3711 6.23528 16.1548 5.76532L15.6629 9.22778H18.5674L17.5676 4.59068C18.1252 3.93943 18.5026 3.14132 18.4395 2.24702C18.2578 -0.329822 14.6526 0.237051 13.9513 1.53762Z" fill="#915B3C"/>
<path fill-rule="evenodd" clip-rule="evenodd" d="M18.2247 1.58711C17.5625 -1.12016 13.8153 0.56067 13.0943 0.103873C12.9367 1.08682 13.445 1.8794 15.2322 1.72627C15.6266 1.94547 15.9071 2.35658 16.2448 2.89586C16.327 2.86368 16.4166 2.84601 16.5103 2.84601C16.9113 2.84601 17.2364 3.16947 17.2364 3.56848C17.2364 3.77098 17.1527 3.95403 17.0178 4.0852C17.1856 4.32114 17.3739 4.56769 17.5897 4.82209C18.3941 4.34192 18.9926 2.94335 18.2273 1.59224L18.2247 1.58711Z" fill="#191847"/>
<path fill-rule="evenodd" clip-rule="evenodd" d="M20.9084 19.2218C20.6902 22.1851 6.63277 30.9093 6.55075 31.1541C6.5143 31.2629 7.97281 34.7019 10.9263 41.4711L9.69746 41.9462C5.16732 34.7772 3.0186 30.8107 3.25128 30.0468C3.58442 28.9531 7.22007 25.3553 14.1582 19.2534L20.9084 19.2218Z" fill="#915B3C"/>
<path fill-rule="evenodd" clip-rule="evenodd" d="M20.9084 19.2218C20.6902 22.1851 6.63277 30.9093 6.55075 31.1541C6.5143 31.2629 7.97281 34.7019 10.9263 41.4711L9.69746 41.9462C5.16732 34.7772 3.0186 30.8107 3.25128 30.0468C3.58442 28.9531 7.22007 25.3553 14.1582 19.2534L20.9084 19.2218Z" fill="black" fill-opacity="0.1"/>
<path fill-rule="evenodd" clip-rule="evenodd" d="M10.6037 39.9423L8.59746 40.669C4.36697 35.9197 2.70873 32.0011 3.01108 30.0045C3.21265 28.6735 6.83577 25.0816 13.8804 19.2291L21.0531 19.2291C20.8083 26.0916 7.77886 31.1802 7.60458 31.4727C7.43031 31.7651 9.14538 34.6292 10.6037 39.9423Z" fill="#2F3676"/>
<path fill-rule="evenodd" clip-rule="evenodd" d="M11.3876 41.2326C11.637 41.5213 11.7919 41.7489 11.8524 41.9153C11.926 42.1176 11.9992 42.4254 12.0719 42.8386C11.8336 42.9254 9.69172 43.706 5.64631 45.1803C5.28157 44.6973 5.27119 44.3687 5.61518 44.1942C5.95917 44.0197 6.24379 43.8717 6.46904 43.75L8.97862 41.3501C9.02691 41.3039 9.10352 41.3048 9.14972 41.3521C9.15051 41.3529 9.15129 41.3537 9.15206 41.3546L9.51086 41.7433C9.89957 41.775 10.198 41.7529 10.4063 41.677C10.5754 41.6154 10.7846 41.4629 11.0337 41.2197L11.0337 41.2197C11.1293 41.1264 11.2826 41.1265 11.376 41.2201C11.38 41.2242 11.3839 41.2283 11.3876 41.2326Z" fill="#E4E4E4"/>
<path fill-rule="evenodd" clip-rule="evenodd" d="M19.293 19.2219L25.5552 34.1801L31.71 46.8261H30.2579L14.3707 19.2219H19.293Z" fill="#915B3C"/>
<path fill-rule="evenodd" clip-rule="evenodd" d="M31.7969 46.2422C31.9323 46.6018 32 46.8709 32 47.0494C32 47.2666 31.9636 47.5834 31.8909 48C31.6378 48 29.3626 48 25.0653 48C24.8879 47.4165 24.9903 47.1016 25.3725 47.055C25.7546 47.0085 26.0721 46.9665 26.3248 46.929L29.4973 45.5218C29.5584 45.4947 29.6299 45.522 29.6572 45.5828C29.6576 45.5838 29.6581 45.5848 29.6585 45.5859L29.8624 46.0781C30.2162 46.2423 30.5037 46.3244 30.7249 46.3244C30.9046 46.3244 31.1528 46.2522 31.4694 46.1078L31.4694 46.1078C31.5909 46.0524 31.7346 46.1055 31.7903 46.2264C31.7927 46.2316 31.7949 46.2369 31.7969 46.2422Z" fill="#E4E4E4"/>
<path fill-rule="evenodd" clip-rule="evenodd" d="M31.1543 44.199L27.9277 44.8011C25.4329 41.1517 14.9921 26.1879 13.8473 19.2219H21.0305C24.8533 24.2576 28.7762 40.4893 31.1543 44.199Z" fill="#5C63AB"/>
<path fill-rule="evenodd" clip-rule="evenodd" d="M9.59782 14.9073L5.73755 17.7278C4.69056 18.0089 3.81584 18.3586 3.11338 18.777C2.94744 18.9274 2.7469 19.2321 3.43506 19.1794C4.12323 19.1268 4.84946 19.1022 4.94441 19.3357C5.03936 19.5693 4.62292 19.8486 4.81486 20.1637C4.94283 20.3737 5.54737 19.847 6.62849 18.5834L10.4512 17.0062L9.59782 14.9073ZM2.05457 4.53452C2.51099 5.04967 2.96778 5.61195 2.83747 5.82795C2.70715 6.04395 2.23235 5.88112 2.09494 6.22328C2.00333 6.45139 2.78996 6.61477 4.45483 6.71341L8.02135 8.80182L9.19248 6.86059L4.60543 5.49051C3.74972 4.82772 2.94258 4.34311 2.18402 4.0367C1.9634 3.99538 1.59816 4.01938 2.05457 4.53452Z" fill="#915B3C"/>
<path fill-rule="evenodd" clip-rule="evenodd" d="M15.5939 7.31168C13.4917 11.2117 10.4519 14.2014 6.04496 17.3093L7.71361 19.1813C12.6341 17.3619 15.2311 16.2642 16.5064 12.5794C16.8264 11.6546 17.0501 8.70653 17.242 7.15539L15.5939 7.31168Z" fill="#2026A2"/>
<path fill-rule="evenodd" clip-rule="evenodd" d="M21.4717 20.3056H12.1533C14.2641 13.9004 15.3423 9.50423 15.3881 7.11717C15.3904 6.99547 15.6163 6.78103 15.7162 6.80911C16.4471 7.01448 17.2291 6.93769 18.0624 6.57874C20.2715 10.1138 21.0354 14.4662 21.4717 20.3056Z" fill="#F2F2F2"/>
<path fill-rule="evenodd" clip-rule="evenodd" d="M5.26467 5.49504L4.77123 7.94823C8.54866 10.3655 12.3736 12.238 15.7252 11.972C14.2697 18.1835 14.3367 23.2684 17.5498 23.2684H22.5184C23.3075 17.9917 21.2336 10.6755 19.3108 6.98532C19.2374 6.8444 19.0811 6.57874 18.7129 6.57874H17.2692C17.2685 6.58066 17.2679 6.58259 17.2672 6.58452C14.5962 6.60621 10.2625 7.09152 5.26467 5.49504Z" fill="#1F28CF"/>
</svg>
